<svg width="25" height="25" viewBox="0 0 25 26" fill="none" xmlns="http://www.w3.org/2000/svg"><path d="M9 20.3331C4.7 21.7185 4.7 17.8592 3 17.3644M15 22.3123V18.8487C15 17.8592 15.1 17.4633 14.5 16.8696C17.3 16.5727 20 15.4842 20 10.9321C19.9988 9.74949 19.5325 8.61379 18.7 7.76541C19.0905 6.73819 19.0545 5.59983 18.6 4.59874C18.6 4.59874 17.5 4.30187 15.1 5.8852C13.0672 5.3613 10.9328 5.3613 8.9 5.8852C6.5 4.30187 5.4 4.59874 5.4 4.59874C4.94548 5.59983 4.90953 6.73819 5.3 7.76541C4.46745 8.61379 4.00122 9.74949 4 10.9321C4 15.4842 6.7 16.5727 9.5 16.8696C8.9 17.4633 8.9 18.0571 9 18.8487V22.3123" stroke="#FCFCFC" stroke-width="2" stroke-linecap="round" stroke-linejoin="round"/></svg>