<svg width="25" height="25" viewBox="0 0 25 26" fill="none" xmlns="http://www.w3.org/2000/svg"><path d="M7.78121 11.9219H16.2187L18.3375 6.32767C18.3658 6.25445 18.4169 6.19199 18.4833 6.14926C18.5498 6.10654 18.6282 6.08575 18.7073 6.08987C18.7865 6.09399 18.8623 6.12281 18.9238 6.17221C18.9854 6.2216 19.0295 6.28901 19.05 6.36478L21.6187 15.8741C21.6548 16.0215 21.6455 16.1762 21.592 16.3184C21.5386 16.4606 21.4434 16.5837 21.3187 16.6719L12.4312 22.7578C12.3044 22.8444 12.154 22.8908 12 22.8908C11.8459 22.8908 11.6955 22.8444 11.5687 22.7578L2.68121 16.6719C2.55652 16.5837 2.46134 16.4606 2.40788 16.3184C2.35442 16.1762 2.34514 16.0215 2.38121 15.8741L4.94996 6.36478C4.97039 6.28901 5.01455 6.2216 5.07611 6.17221C5.13766 6.12281 5.21344 6.09399 5.29258 6.08987C5.37172 6.08575 5.45014 6.10654 5.51659 6.14926C5.58304 6.19199 5.63411 6.25445 5.66246 6.32767L7.78121 11.9219Z" stroke="#FCFCFC" stroke-width="2" stroke-linecap="round" stroke-linejoin="round"/><path d="M12.0657 22.8877L16.2188 11.9219H20.55" stroke="#FCFCFC" stroke-width="2" stroke-linecap="round" stroke-linejoin="round"/><path d="M3.44995 11.9219H7.7812L11.9343 22.8877" stroke="#FCFCFC" stroke-width="2" stroke-linecap="round" stroke-linejoin="round"/></svg>