<svg width="24" height="25" viewBox="0 0 24 25" fill="none" xmlns="http://www.w3.org/2000/svg">
<path d="M19.875 3.875H4.125C3.71079 3.875 3.375 4.21079 3.375 4.625V20.375C3.375 20.7892 3.71079 21.125 4.125 21.125H19.875C20.2892 21.125 20.625 20.7892 20.625 20.375V4.625C20.625 4.21079 20.2892 3.875 19.875 3.875Z" stroke="#FCFCFC" stroke-width="2" stroke-linecap="round" stroke-linejoin="round"/>
<path d="M11.25 11V17" stroke="#FCFCFC" stroke-width="2" stroke-linecap="round" stroke-linejoin="round"/>
<path d="M8.25 11V17" stroke="#FCFCFC" stroke-width="2" stroke-linecap="round" stroke-linejoin="round"/>
<path d="M11.25 13.625C11.25 12.9288 11.5266 12.2611 12.0188 11.7688C12.5111 11.2766 13.1788 11 13.875 11C14.5712 11 15.2389 11.2766 15.7312 11.7688C16.2234 12.2611 16.5 12.9288 16.5 13.625V17" stroke="#FCFCFC" stroke-width="2" stroke-linecap="round" stroke-linejoin="round"/>
<path d="M8.25 9.125C8.87132 9.125 9.375 8.62132 9.375 8C9.375 7.37868 8.87132 6.875 8.25 6.875C7.62868 6.875 7.125 7.37868 7.125 8C7.125 8.62132 7.62868 9.125 8.25 9.125Z" fill="#FCFCFC"/>
</svg>
