<svg width="25" height="25" viewBox="0 0 25 25" fill="none" xmlns="http://www.w3.org/2000/svg">
<mask id="mask0_865_3197" style="mask-type:alpha" maskUnits="userSpaceOnUse" x="0" y="0" width="25" height="25">
<rect width="25" height="25" fill="#D9D9D9"/>
</mask>
<g mask="url(#mask0_865_3197)">
<path d="M12.5001 16.6667C13.8022 16.6667 14.9089 16.211 15.8204 15.2995C16.7319 14.3881 17.1876 13.2813 17.1876 11.9792C17.1876 10.6771 16.7319 9.57036 15.8204 8.6589C14.9089 7.74745 13.8022 7.29172 12.5001 7.29172C11.198 7.29172 10.0912 7.74745 9.17977 8.6589C8.26831 9.57036 7.81259 10.6771 7.81259 11.9792C7.81259 13.2813 8.26831 14.3881 9.17977 15.2995C10.0912 16.211 11.198 16.6667 12.5001 16.6667ZM12.5027 14.4826C11.808 14.4826 11.2167 14.2395 10.7287 13.7532C10.2407 13.2669 9.9967 12.6765 9.9967 11.9818C9.9967 11.2872 10.2398 10.6958 10.7261 10.2078C11.2124 9.71983 11.8028 9.47583 12.4975 9.47583C13.1922 9.47583 13.7835 9.71897 14.2715 10.2052C14.7595 10.6915 15.0035 11.282 15.0035 11.9766C15.0035 12.6713 14.7603 13.2626 14.2741 13.7506C13.7878 14.2386 13.1973 14.4826 12.5027 14.4826ZM12.5001 20.248C9.8476 20.248 7.4429 19.4915 5.28597 17.9784C3.12903 16.4654 1.56219 14.4656 0.585449 11.9792C1.56219 9.49279 3.12903 7.49305 5.28597 5.98C7.4429 4.46692 9.8476 3.71039 12.5001 3.71039C15.1526 3.71039 17.5573 4.46692 19.7142 5.98C21.8711 7.49305 23.438 9.49279 24.4147 11.9792C23.438 14.4656 21.8711 16.4654 19.7142 17.9784C17.5573 19.4915 15.1526 20.248 12.5001 20.248ZM12.5014 17.7084C14.4525 17.7084 16.2435 17.1894 17.8743 16.1515C19.5051 15.1137 20.7545 13.7229 21.6226 11.9792C20.7545 10.2356 19.5047 8.84478 17.873 7.8069C16.2413 6.769 14.4499 6.25005 12.4988 6.25005C10.5477 6.25005 8.75668 6.769 7.12587 7.8069C5.49507 8.84478 4.24564 10.2356 3.37759 11.9792C4.24564 13.7229 5.49551 15.1137 7.12719 16.1515C8.75888 17.1894 10.5503 17.7084 12.5014 17.7084Z" fill="#6B51BD"/>
</g>
</svg>
