<svg width="26" height="26" viewBox="0 0 26 26" fill="none" xmlns="http://www.w3.org/2000/svg">
<mask id="mask0_1213_2621" style="mask-type:alpha" maskUnits="userSpaceOnUse" x="0" y="0" width="26" height="26">
<rect x="0.600586" y="0.0839844" width="25" height="25" fill="#D9D9D9"/>
</mask>
<g mask="url(#mask0_1213_2621)">
<path d="M17.4598 13.6878L15.3165 11.5444C15.404 11.0817 15.2653 10.6416 14.9004 10.2242C14.5354 9.80683 14.0692 9.64191 13.5016 9.72946L11.4759 7.70386C11.7416 7.5944 12.0092 7.51231 12.2787 7.45759C12.5482 7.40286 12.8222 7.3755 13.1007 7.3755C14.4028 7.3755 15.5096 7.83123 16.421 8.74269C17.3325 9.65415 17.7882 10.7609 17.7882 12.063C17.7882 12.3219 17.7608 12.5959 17.7061 12.885C17.6514 13.1741 17.5693 13.4417 17.4598 13.6878ZM21.1759 17.3812L19.3711 15.599C19.9621 15.1152 20.4916 14.5909 20.9596 14.0263C21.4276 13.4617 21.8537 12.8073 22.2379 12.063C21.3502 10.3193 20.1046 8.92857 18.501 7.89069C16.8973 6.85279 15.0972 6.33384 13.1007 6.33384C12.5972 6.33384 12.1294 6.36365 11.6973 6.42329C11.2652 6.48292 10.849 6.56746 10.449 6.67691L8.45169 4.67959C9.16349 4.38445 9.91229 4.1631 10.6981 4.01553C11.4838 3.86796 12.2847 3.79417 13.1007 3.79417C15.7811 3.79417 18.1873 4.54354 20.3193 6.04227C22.4514 7.54099 24.0167 9.5479 25.0154 12.063C24.6161 13.1069 24.0811 14.0869 23.4104 15.0029C22.7397 15.9189 21.9949 16.7116 21.1759 17.3812ZM21.0491 23.8021L16.939 19.7295C16.351 19.9302 15.739 20.0808 15.1031 20.1812C14.4671 20.2816 13.7997 20.3318 13.1007 20.3318C10.4105 20.3318 7.99935 19.5776 5.86734 18.069C3.73531 16.5605 2.17487 14.5585 1.18604 12.063C1.54081 11.1625 2.00088 10.3001 2.56624 9.47581C3.13163 8.65154 3.7604 7.90728 4.45257 7.24303L1.64687 4.41467L3.26713 2.79443L22.6546 22.1966L21.0491 23.8021ZM6.24947 8.99576C5.76562 9.46677 5.34235 9.94193 4.97965 10.4213C4.61696 10.9006 4.28314 11.4478 3.9782 12.063C4.84625 13.8165 6.08455 15.2097 7.69309 16.2427C9.30163 17.2757 11.1042 17.7922 13.1007 17.7922C13.3596 17.7922 13.6319 17.7778 13.9176 17.7491C14.2033 17.7205 14.5198 17.6801 14.867 17.628L13.9295 16.6384C13.7876 16.6807 13.6495 16.7099 13.5151 16.7262C13.3807 16.7424 13.2426 16.7505 13.1007 16.7505C11.7986 16.7505 10.6918 16.2948 9.78038 15.3833C8.86893 14.4719 8.4132 13.3651 8.4132 12.063C8.4132 11.9309 8.41886 11.7952 8.43018 11.656C8.4415 11.5167 8.46339 11.3761 8.49585 11.2342L6.24947 8.99576Z" fill="#6B51BD"/>
</g>
</svg>