<svg width="26" height="26" viewBox="0 0 26 26" fill="none" xmlns="http://www.w3.org/2000/svg">
<path fill-rule="evenodd" clip-rule="evenodd" d="M13.4199 25.9555C6.55267 25.9555 0.919434 20.3223 0.919434 13.4551C0.919434 6.58782 6.55267 0.95459 13.4199 0.95459C16.4696 0.95459 19.2563 2.10467 21.4096 3.90986C21.6245 4.09003 21.7539 4.35217 21.7662 4.63235C21.7785 4.91253 21.6726 5.18499 21.4743 5.3833L18.4198 8.4378C18.0676 8.79 17.5099 8.82931 17.1117 8.52998C16.0645 7.74261 14.7843 7.24937 13.4199 7.24937C10.8549 7.24937 8.62281 8.85472 7.6852 11.1039C7.67036 11.2788 7.60968 11.4504 7.50315 11.5995C7.31562 12.1868 7.21422 12.8104 7.21422 13.4551C7.21422 14.0997 7.31561 14.7233 7.50313 15.3106C7.60968 15.4596 7.67037 15.6313 7.68521 15.8062C8.62282 18.0554 10.8549 19.6608 13.4199 19.6608C14.7385 19.6608 15.9661 19.2316 16.9729 18.5067C16.9835 18.495 16.9944 18.4836 17.0057 18.4723C17.0819 18.396 17.1675 18.3347 17.2586 18.2882C17.8373 17.8188 18.3317 17.2473 18.7137 16.6025H13.4199C12.8676 16.6025 12.4199 16.1547 12.4199 15.6025V11.3077C12.4199 10.7554 12.8676 10.3077 13.4199 10.3077H24.7185C25.1987 10.3077 25.611 10.6489 25.7009 11.1206C25.8451 11.8777 25.9204 12.6581 25.9204 13.4551C25.9204 20.3223 20.2871 25.9555 13.4199 25.9555ZM5.51644 15.6494C5.31962 14.9498 5.21422 14.2137 5.21422 13.4551C5.21422 12.6964 5.31962 11.9603 5.51645 11.2607L3.71694 9.46118C3.20343 10.6947 2.91943 12.0442 2.91943 13.4551C2.91943 14.8659 3.20343 16.2154 3.71693 17.4489L5.51644 15.6494ZM4.70706 19.2872L6.36808 17.6262C7.80558 20.0333 10.4388 21.6607 13.4199 21.6607C14.9514 21.6607 16.3824 21.2292 17.6049 20.4857L19.2729 22.1538C17.5963 23.2898 15.5801 23.9555 13.4199 23.9555C9.8085 23.9555 6.5996 22.0948 4.70706 19.2872ZM13.4199 5.24937C10.4388 5.24937 7.80559 6.87684 6.36809 9.28388L4.70707 7.62289C6.59962 4.8153 9.80851 2.95459 13.4199 2.95459C15.5686 2.95459 17.5756 3.64025 19.2492 4.77992L17.5884 6.44075C16.3794 5.7084 14.9546 5.24937 13.4199 5.24937ZM20.8225 20.8749L19.185 19.2374C20.1036 18.31 20.804 17.1677 21.2025 15.9031C21.2983 15.5992 21.2436 15.268 21.0552 15.0111C20.8668 14.7542 20.5673 14.6025 20.2488 14.6025H14.4199V12.3077H23.8579C23.8992 12.6843 23.9204 13.0671 23.9204 13.4551C23.9204 16.3407 22.7323 18.9694 20.8225 20.8749Z" fill="#FCFCFC"/>
</svg>
