<svg width="25" height="25" viewBox="0 0 25 26" fill="none" xmlns="http://www.w3.org/2000/svg"><path d="M19.875 4.87109H4.125C3.71079 4.87109 3.375 5.20338 3.375 5.61328V21.1992C3.375 21.6091 3.71079 21.9414 4.125 21.9414H19.875C20.2892 21.9414 20.625 21.6091 20.625 21.1992V5.61328C20.625 5.20338 20.2892 4.87109 19.875 4.87109Z" stroke="#FCFCFC" stroke-width="2" stroke-linecap="round" stroke-linejoin="round"/><path d="M11.25 11.9219V17.8594" stroke="#FCFCFC" stroke-width="2" stroke-linecap="round" stroke-linejoin="round"/><path d="M8.25 11.9219V17.8594" stroke="#FCFCFC" stroke-width="2" stroke-linecap="round" stroke-linejoin="round"/><path d="M11.25 14.5195C11.25 13.8306 11.5266 13.1699 12.0188 12.6827C12.5111 12.1956 13.1788 11.9219 13.875 11.9219C14.5712 11.9219 15.2389 12.1956 15.7312 12.6827C16.2234 13.1699 16.5 13.8306 16.5 14.5195V17.8594" stroke="#FCFCFC" stroke-width="2" stroke-linecap="round" stroke-linejoin="round"/><path d="M8.25 10.0664C8.87132 10.0664 9.375 9.56797 9.375 8.95312C9.375 8.33828 8.87132 7.83984 8.25 7.83984C7.62868 7.83984 7.125 8.33828 7.125 8.95312C7.125 9.56797 7.62868 10.0664 8.25 10.0664Z" fill="#FCFCFC"/></svg>